<svg width="12" height="10" viewBox="0 0 12 10" fill="none" xmlns="http://www.w3.org/2000/svg">
<path
		d="M4.82334 9.25388C4.99812 9.42035 5.27528 9.41379 5.44175 9.23879C5.60844 9.06379 5.60144 8.78685 5.42666 8.62016L2.07059 5.43713L10.8125 5.43713C11.054 5.43713 11.25 5.24113 11.25 4.99963C11.25 4.75813 11.054 4.56213 10.8125 4.56213L2.08459 4.56213L5.42666 1.37888C5.60166 1.21219 5.60844 0.935253 5.44175 0.760254C5.35578 0.670129 5.2405 0.624629 5.125 0.624629C5.0165 0.624629 4.908 0.66466 4.82334 0.745378L1.00638 4.381C0.841001 4.54616 0.75 4.76578 0.75 4.99963C0.75 5.23347 0.841001 5.4531 1.01403 5.62569L4.82334 9.25388Z" fill="currentColor"/>
</svg>
