<svg width="14" height="17" viewBox="0 0 14 17" fill="none" xmlns="http://www.w3.org/2000/svg">
	<path d="M11.8706 0.799988H2.18191C1.39284 0.799988 0.699997 1.39475 0.699997 2.09876V15.2308C0.699997 15.4665 0.771581 15.6629 0.886949 15.8146C1.02492 15.996 1.24707 16.1 1.48529 16.0999C1.71052 16.0999 1.95031 16.0081 2.17176 15.8347L6.50647 12.4626C6.64035 12.3579 6.83265 12.2978 7.0326 12.2978C7.23247 12.2978 7.42438 12.3579 7.55865 12.4629L11.8789 15.8342C12.1011 16.0081 12.3244 16.1 12.5492 16.1C12.9294 16.1 13.3 15.8313 13.3 15.2309V2.09876C13.3 1.39475 12.6597 0.799988 11.8706 0.799988Z" fill="#BEC5CF"/>
</svg>
