<svg  width="16" height="20" viewBox="2 0 16 20" xmlns="http://www.w3.org/2000/svg">
	<path
			d="M3.39486 19.5H3.39502C3.51586 19.5 3.69213 19.4443 3.89246 19.2732L3.89359 19.2722L9.0842 14.8652C9.08439 14.865 9.08457 14.8648 9.08475 14.8647C9.34827 14.6399 9.69863 14.5299 10.0391 14.5299C10.3799 14.5299 10.7297 14.6402 10.9933 14.8651L3.39486 19.5ZM3.39486 19.5C3.2708 19.5 3.15903 19.4422 3.08865 19.3413C3.01261 19.2321 2.95447 19.0765 2.95447 18.8639V1.69775C2.95447 1.07734 3.5361 0.5 4.22937 0.5H15.8336C16.5033 0.5 17.0456 1.05432 17.0456 1.69775V18.864C17.0456 19.1622 16.9627 19.3171 16.8957 19.3913C16.8293 19.4648 16.7429 19.5001 16.6464 19.5001C16.5344 19.5001 16.3779 19.4515 16.1681 19.2724L16.1677 19.2721L10.9938 14.8655L3.39486 19.5Z" stroke="currentColor" fill="transparent"/>
</svg>
