<svg width="12" height="14" viewBox="0 0 12 14" xmlns="http://www.w3.org/2000/svg">
	<path fill-rule="evenodd" clip-rule="evenodd"
	      d="M11.5247 2.49529C11.7841 2.49529 12 2.71062 12 2.98462V3.23795C12 3.50528 11.7841 3.72728 11.5247 3.72728H0.475902C0.215907 3.72728 0 3.50528 0 3.23795V2.98462C0 2.71062 0.215907 2.49529 0.475902 2.49529H2.41971C2.81457 2.49529 3.1582 2.21463 3.24703 1.81863L3.34882 1.36397C3.50702 0.744642 4.02766 0.333313 4.62351 0.333313H7.37649C7.96585 0.333313 8.49233 0.744642 8.64469 1.3313L8.75362 1.81796C8.8418 2.21463 9.18543 2.49529 9.58094 2.49529H11.5247ZM10.5373 11.756C10.7402 9.86464 11.0955 5.37135 11.0955 5.32602C11.1085 5.18869 11.0638 5.05869 10.9749 4.95402C10.8796 4.85602 10.759 4.79802 10.6261 4.79802H1.37909C1.24552 4.79802 1.11844 4.85602 1.03026 4.95402C0.940789 5.05869 0.8967 5.18869 0.903184 5.32602C0.904375 5.33435 0.917125 5.49263 0.93844 5.75724C1.03313 6.93274 1.29685 10.2067 1.46726 11.756C1.58786 12.8973 2.33673 13.6146 3.42145 13.6406C4.25849 13.6599 5.12082 13.6666 6.0026 13.6666C6.83316 13.6666 7.67669 13.6599 8.53967 13.6406C9.66199 13.6213 10.4102 12.9166 10.5373 11.756Z"
	      fill="currentColor"/>
</svg>
