<svg width="16" height="16" viewBox="0 0 16 16" fill="none" xmlns="http://www.w3.org/2000/svg">
<g clip-path="url(#clip0)">
<path d="M14.857 10.2857C14.5414 10.2857 14.2856 10.5415 14.2856 10.8571V14.2857C14.2856 14.6013 14.0297 14.8572 13.7141 14.8572H2.28561C1.97 14.8572 1.71417 14.6013 1.71417 14.2857V10.8571C1.71417 10.5415 1.45833 10.2857 1.14273 10.2857C0.827126 10.2857 0.571289 10.5415 0.571289 10.8571V14.2857C0.571289 15.2325 1.3388 16 2.28557 16H13.7142C14.6609 16 15.4284 15.2325 15.4284 14.2857V10.8571C15.4284 10.5415 15.1726 10.2857 14.857 10.2857Z" fill="currentColor"/>
<path d="M11.2479 9.88171C11.0265 9.66786 10.6754 9.66786 10.454 9.88171L8.57114 11.7634V0.571439C8.57114 0.255837 8.3153 0 7.9997 0C7.68409 0 7.42826 0.255837 7.42826 0.571439V11.7634L5.54653 9.88171C5.31952 9.66247 4.95778 9.66877 4.73854 9.89574C4.52465 10.1172 4.52465 10.4683 4.73854 10.6897L7.59567 13.5468C7.81856 13.7703 8.18037 13.7707 8.40379 13.5479C8.40413 13.5475 8.40446 13.5472 8.40483 13.5468L11.262 10.6897C11.4812 10.4627 11.4749 10.101 11.2479 9.88171Z" fill="currentColor"/>
</g>
<defs>
<clipPath id="clip0">
<rect width="16" height="16" fill="white"/>
</clipPath>
</defs>
</svg>
