<svg width="20" height="21" viewBox="0 0 20 21" fill="none" xmlns="http://www.w3.org/2000/svg">
	<g clip-path="url(#clip0)">
		<path d="M18.5715 13.3571C18.177 13.3571 17.8572 13.6769 17.8572 14.0714V18.3571C17.8572 18.7516 17.5374 19.0714 17.1429 19.0714H2.85725C2.46275 19.0714 2.14295 18.7516 2.14295 18.3571V14.0714C2.14295 13.6769 1.82316 13.3571 1.42865 13.3571C1.03415 13.3571 0.714355 13.6769 0.714355 14.0714V18.3571C0.714355 19.5406 1.67374 20.5 2.85721 20.5H17.1429C18.3264 20.5 19.2858 19.5406 19.2858 18.3571V14.0714C19.2858 13.6769 18.966 13.3571 18.5715 13.3571Z"
		      fill="currentColor"/>
		<path d="M14.0599 12.8521C13.7831 12.5848 13.3443 12.5848 13.0675 12.8521L10.7139 15.2043V1.2143C10.7139 0.819796 10.3941 0.5 9.99962 0.5C9.60512 0.5 9.28532 0.819796 9.28532 1.2143V15.2043L6.93316 12.8521C6.6494 12.5781 6.19722 12.586 5.92317 12.8697C5.65582 13.1465 5.65582 13.5853 5.92317 13.8621L9.49458 17.4335C9.7732 17.7128 10.2255 17.7134 10.5047 17.4348C10.5052 17.4344 10.5056 17.434 10.506 17.4335L14.0774 13.8621C14.3515 13.5784 14.3437 13.1262 14.0599 12.8521Z"
		      fill="currentColor"/>
	</g>
	<defs>
		<clipPath id="clip0">
			<rect width="20" height="20" fill="white" transform="translate(0 0.5)"/>
		</clipPath>
	</defs>
</svg>
