<svg width="21" height="21" viewBox="0 0 21 21" fill="none" xmlns="http://www.w3.org/2000/svg">
<path d="M8.75 3.5V9.625H3.5V3.5H1.75V17.5H3.5V11.375H8.75V17.5H10.5V3.5H8.75Z" fill="#525252"/>
<path d="M19.25 10.2812C19.25 8.46912 17.6829 7 15.75 7C13.8171 7 12.25 8.46912 12.25 10.2812H14.1167L14.1223 10.1553C14.1904 9.36862 14.8932 8.75 15.75 8.75C16.6516 8.75 17.3833 9.436 17.3833 10.2812C17.3833 10.6654 17.2321 11.0171 16.982 11.2857L12.25 16.1385V17.5H19.25V15.75H15.3151L18.3913 12.4338L18.5295 12.2762C18.9812 11.7232 19.25 11.0311 19.25 10.2812Z" fill="#525252"/>
</svg>
