<svg width="16" height="12" viewBox="0 0 16 12" fill="none" xmlns="http://www.w3.org/2000/svg">
<path d="M5 12.0004C3.63144 12.0011 2.43589 11.0755 2.09375 9.75037H0.5V8.25037H2.0945C2.48423 6.74095 3.96509 5.78156 5.50196 6.04279C7.03883 6.30403 8.11953 7.69883 7.98864 9.25225C7.85776 10.8057 6.55892 12 5 12.0004ZM5 7.50037C4.18055 7.5012 3.51342 8.15951 3.50167 8.97888C3.48993 9.79825 4.13792 10.4754 4.95702 10.4997C5.77611 10.524 6.46312 9.88649 6.5 9.06787V9.36787V9.00037C6.5 8.17194 5.82843 7.50037 5 7.50037ZM15.5 9.75037H8.75V8.25037H15.5V9.75037ZM8.75 6.00037C7.38172 6.00072 6.18657 5.0752 5.8445 3.75037H0.5V2.25037H5.8445C6.23423 0.740954 7.71509 -0.218443 9.25196 0.0427915C10.7888 0.304026 11.8695 1.69883 11.7386 3.25225C11.6078 4.80566 10.3089 5.99997 8.75 6.00037ZM8.75 1.50037C7.93055 1.5012 7.26341 2.15951 7.25167 2.97888C7.23993 3.79824 7.88792 4.4754 8.70702 4.49971C9.52611 4.52402 10.2131 3.88649 10.25 3.06787V3.36787V3.00037C10.25 2.17194 9.57843 1.50037 8.75 1.50037ZM15.5 3.75037H12.5V2.25037H15.5V3.75037Z" fill="#4FBFD8"/>
</svg>
