<svg width="30" height="30" viewBox="0 0 30 30" fill="none" xmlns="http://www.w3.org/2000/svg">
<path d="M8.86371 15C8.86371 14.2469 8.25316 13.6364 7.50007 13.6364H2.04552C1.29243 13.6364 0.681885 14.2469 0.681885 15C0.681885 15.7531 1.29243 16.3636 2.04552 16.3636H7.50007C8.25316 16.3636 8.86371 15.7531 8.86371 15Z" fill="#BEC5CF"/>
<path d="M27.9547 13.6364H25.2274C24.4743 13.6364 23.8638 14.2469 23.8638 15C23.8638 15.7531 24.4743 16.3636 25.2274 16.3636H27.9547C28.7078 16.3636 29.3183 15.7531 29.3183 15C29.3183 14.2469 28.7078 13.6364 27.9547 13.6364Z" fill="#BEC5CF"/>
<path d="M15.6818 8.18182C16.4348 8.18182 17.0454 7.57127 17.0454 6.81818V1.36364C17.0454 0.610545 16.4348 0 15.6818 0C14.9287 0 14.3181 0.610545 14.3181 1.36364V6.81818C14.3181 7.57127 14.9287 8.18182 15.6818 8.18182Z" fill="#BEC5CF"/>
<path d="M15.682 21.8181C14.9289 21.8181 14.3184 22.4287 14.3184 23.1818V28.6363C14.3184 29.3894 14.9289 29.9999 15.682 29.9999C16.4351 29.9999 17.0456 29.3894 17.0456 28.6363V23.1818C17.0456 22.4287 16.4351 21.8181 15.682 21.8181Z" fill="#BEC5CF"/>
<path d="M7.00365 4.39339C6.47128 3.86085 5.60783 3.86094 5.07519 4.39339C4.54264 4.92594 4.54264 5.7893 5.07519 6.32185L8.93219 10.1789C9.19846 10.4452 9.54746 10.5784 9.89637 10.5784C10.2453 10.5784 10.5944 10.4452 10.8606 10.179C11.3931 9.64648 11.3931 8.78312 10.8606 8.25057L7.00365 4.39339Z" fill="#BEC5CF"/>
<path d="M22.4316 19.8213C21.8991 19.2889 21.0357 19.2889 20.5031 19.8213C19.9706 20.3539 19.9707 21.2173 20.5031 21.7498L24.3602 25.6067C24.6265 25.873 24.9755 26.0061 25.3245 26.0061C25.6735 26.0061 26.0225 25.8729 26.2887 25.6067C26.8212 25.0742 26.8212 24.2108 26.2887 23.6783L22.4316 19.8213Z" fill="#BEC5CF"/>
<path d="M8.9321 19.8213L5.07519 23.6782C4.54264 24.2107 4.54264 25.0741 5.07519 25.6067C5.34146 25.8729 5.69046 26.006 6.03946 26.006C6.38846 26.006 6.73746 25.8729 7.00365 25.6067L10.8606 21.7497C11.3931 21.2172 11.3931 20.3538 10.8606 19.8213C10.328 19.2887 9.46455 19.2887 8.9321 19.8213Z" fill="#BEC5CF"/>
</svg>
