<svg xmlns="http://www.w3.org/2000/svg" width="49" height="25" viewBox="0 0 49 25">
	<path fill="#225496" d="M7.579 16.539V8.307h2.613l3.015 4.623V8.307h2.447v8.232h-2.61l-3.019-4.705v4.705H7.58zM24.494 0h-.079C9.767.01 0 5.022 0 12.54 0 19.985 9.784 25 24.454 25 39.216 25 49 19.984 49 12.54 49 5.023 39.233.01 24.494 0zm-7.37 16.539V8.307h2.518v6.272h1.964v1.96h-4.482zm5.459 0l1.303-8.232h2.447l1.551 4.862 1.464-4.862h2.528l1.225 8.232h-2.443l-.575-4.47-1.389 4.47h-1.626l-1.386-4.47-.653 4.47h-2.447zm11.413 0V8.307h2.607V11.6l2.447-3.292h2.94l-3.349 3.998 3.427 4.234H38.89l-2.287-3.37v3.37h-2.607zm-9.542 7.371c-13.779 0-22.987-4.548-22.987-11.37 0-6.896 9.208-11.444 22.987-11.444 13.86 0 23.08 4.548 23.08 11.445 0 6.821-9.22 11.37-23.08 11.37zm0-21.715c-12.959 0-21.602 4.152-21.602 10.346 0 6.19 8.643 10.348 21.602 10.348 12.966 0 21.61-4.158 21.61-10.348 0-6.194-8.644-10.346-21.61-10.346zm0 20.453c-12.799 0-21.36-4.074-21.36-10.107 0-6.037 8.562-10.113 21.36-10.113 12.806 0 21.367 4.076 21.367 10.113 0 6.033-8.561 10.107-21.367 10.107z"/>
</svg>
