<svg width="99" height="50" viewBox="0 0 99 50" fill="none" xmlns="http://www.w3.org/2000/svg">
	<path d="M15.312 33.0779V16.6143H20.592L26.6838 25.8606V16.6143H31.6272V33.0779H26.3538L20.2554 23.6683V33.0779H15.312ZM49.4868 0H49.3284C19.734 0.0188442 0 10.044 0 25.0817C0 39.9686 19.767 50 49.4076 50C79.233 50 99 39.9686 99 25.0817C99 10.044 79.266 0.0188442 49.4868 0ZM34.5972 33.0779V16.6143H39.6858V29.1583H43.6524V33.0779H34.5972ZM45.6258 33.0779L48.2592 16.6143H53.2026L56.3376 26.3379L59.2944 16.6143H64.4028L66.8778 33.0779H61.941L60.7794 24.1394L57.9744 33.0779H54.6876L51.8892 24.1394L50.5692 33.0779H45.6258ZM68.6862 33.0779V16.6143H73.953V23.1972L78.8964 16.6143H84.8364L78.0714 24.6106L84.9948 33.0779H78.573L73.953 26.3379V33.0779H68.6862ZM49.4076 47.8203C21.5688 47.8203 2.9634 38.7249 2.9634 25.0817C2.9634 11.2877 21.5688 2.19221 49.4076 2.19221C77.4114 2.19221 96.0366 11.2877 96.0366 25.0817C96.0366 38.7249 77.4114 47.8203 49.4076 47.8203ZM49.4076 4.3907C23.2254 4.3907 5.7618 12.6947 5.7618 25.0817C5.7618 37.4623 23.2254 45.7789 49.4076 45.7789C75.603 45.7789 93.0666 37.4623 93.0666 25.0817C93.0666 12.6947 75.603 4.3907 49.4076 4.3907ZM49.4076 45.2952C23.5488 45.2952 6.2502 37.1482 6.2502 25.0817C6.2502 13.0088 23.5488 4.85553 49.4076 4.85553C75.2796 4.85553 92.5782 13.0088 92.5782 25.0817C92.5782 37.1482 75.2796 45.2952 49.4076 45.2952Z"
	      fill="#225496"/>
</svg>
