<svg width="40" height="40" viewBox="0 0 40 40" fill="none" xmlns="http://www.w3.org/2000/svg">
<path d="M29.9998 36.6668H9.99984C8.15889 36.6668 6.6665 35.1744 6.6665 33.3335V6.66682C6.6665 4.82587 8.15889 3.33348 9.99984 3.33348H21.6665C21.6814 3.33155 21.6966 3.33155 21.7115 3.33348H21.7215C21.7372 3.33841 21.7534 3.34176 21.7698 3.34348C21.9168 3.35291 22.0619 3.38148 22.2015 3.42848H22.2265H22.2515H22.2715C22.3023 3.45003 22.3312 3.47399 22.3582 3.50015C22.5397 3.58086 22.7052 3.69379 22.8465 3.83348L32.8465 13.8335C32.9862 13.9748 33.0991 14.1402 33.1798 14.3218C33.1948 14.3585 33.2065 14.3935 33.2182 14.4318L33.2348 14.4785C33.2814 14.6175 33.3088 14.7621 33.3165 14.9085C33.318 14.9251 33.3219 14.9414 33.3282 14.9568V14.9668C33.3309 14.9777 33.3326 14.9889 33.3332 15.0002V33.3335C33.3332 34.2175 32.982 35.0654 32.3569 35.6905C31.7317 36.3156 30.8839 36.6668 29.9998 36.6668ZM21.6665 6.66682V15.0002H29.9998L21.6665 6.66682Z" fill="#BEC5CF"/>
<path d="M20.5 19V28" stroke="white" stroke-linecap="round"/>
<path d="M16 23.5H25" stroke="white" stroke-linecap="round"/>
</svg>
