<svg xmlns="http://www.w3.org/2000/svg" width="12" height="12">
	<path fill="#FCE672" d="M1.836 1.416h-.001a.428.428 0 00-.427.43v6.439a.43.43 0 00.43.429c.999.002 2.673.21 3.829 1.42v-6.74c0-.08-.02-.154-.06-.216-.948-1.527-2.77-1.76-3.771-1.762zM10.593 8.285v-6.44a.428.428 0 00-.428-.429c-1.002.003-2.824.235-3.773 1.761a.411.411 0 00-.059.218v6.738c1.156-1.208 2.83-1.417 3.83-1.42a.43.43 0 00.43-.428z"/>
	<path fill="#FCE672" d="M11.57 2.901h-.31v5.384c0 .602-.492 1.094-1.096 1.096-.847.002-2.245.167-3.235 1.104 1.712-.419 3.517-.146 4.546.088a.428.428 0 00.525-.418V3.33a.43.43 0 00-.43-.429zM.74 8.285V2.9H.43a.43.43 0 00-.43.43v6.824a.427.427 0 00.525.418c1.03-.235 2.834-.507 4.546-.088-.99-.937-2.388-1.102-3.235-1.105A1.099 1.099 0 01.74 8.285z"/>
</svg>
