<svg width="13" height="13" viewBox="0 0 13 13" fill="none" xmlns="http://www.w3.org/2000/svg">
<path d="M8.03848 2.27087L0.99574 9.31412C0.960308 9.34966 0.934723 9.39453 0.922541 9.44275L0.14192 12.576C0.118569 12.6703 0.146286 12.7706 0.215119 12.8395C0.267201 12.8915 0.338167 12.9204 0.410756 12.9204C0.43299 12.9204 0.455732 12.9176 0.477864 12.912L3.61111 12.1313C3.65994 12.1191 3.70431 12.0937 3.73974 12.0582L10.7831 5.01548L8.03848 2.27087Z" fill="currentColor"/>
<path d="M12.5271 1.31012L11.7431 0.526147C11.2191 0.00217976 10.3059 0.00268738 9.78258 0.526147L8.82227 1.48646L11.5668 4.23097L12.5271 3.27065C12.7888 3.00902 12.933 2.6608 12.933 2.29044C12.933 1.92008 12.7888 1.57185 12.5271 1.31012Z" fill="currentColor"/>
</svg>
