<svg width="40" height="40" viewBox="0 0 40 40" xmlns="http://www.w3.org/2000/svg">
	<rect width="40" height="40" rx="5" fill="#F3F3F3"/>
	<path fill-rule="evenodd" clip-rule="evenodd"
	      d="M14.5466 9.24424C11.3254 9.24424 9.24414 11.453 9.24414 14.8605V25.128C9.24414 26.0842 9.42164 26.938 9.72539 27.6767C9.73851 27.6611 10.0245 27.3126 10.3975 26.858C11.1269 25.9692 12.1892 24.6746 12.1966 24.668C13.0616 23.6805 14.6854 22.208 16.8166 23.0992C17.2837 23.2929 17.6988 23.5581 18.0809 23.8023C18.1181 23.8261 18.155 23.8497 18.1916 23.873C18.9079 24.3517 19.3291 24.5767 19.7666 24.5392C19.9479 24.5142 20.1179 24.4605 20.2791 24.3605C20.8874 23.9855 22.4645 21.7509 22.9367 21.0818C23.006 20.9837 23.0515 20.9192 23.0666 20.8992C24.4291 19.1242 26.5291 18.6492 28.2791 19.6992C28.5141 19.8392 30.1979 21.0155 30.7554 21.488V14.8605C30.7554 11.453 28.6741 9.24424 25.4416 9.24424H14.5466ZM25.4415 7.50049C29.6628 7.50049 32.499 10.453 32.499 14.8605V25.128C32.499 25.2388 32.4874 25.3428 32.4757 25.4467C32.4676 25.5197 32.4594 25.5927 32.4553 25.668C32.4526 25.7135 32.4513 25.7591 32.45 25.8046C32.4483 25.8653 32.4465 25.926 32.4415 25.9867C32.439 26.0105 32.4343 26.0333 32.4296 26.0561C32.425 26.0789 32.4203 26.1017 32.4178 26.1255C32.3765 26.518 32.3128 26.893 32.224 27.2567C32.2031 27.3476 32.1788 27.4352 32.1544 27.5236L32.149 27.543C32.049 27.8955 31.9315 28.2317 31.7903 28.553C31.7655 28.607 31.7394 28.6596 31.7133 28.7123C31.6959 28.7474 31.6785 28.7825 31.6615 28.818C31.509 29.1242 31.344 29.418 31.1528 29.6905C31.1174 29.7409 31.0797 29.7882 31.042 29.8356C31.0171 29.8668 30.9921 29.8982 30.9678 29.9305C30.769 30.188 30.5615 30.4342 30.3265 30.658C30.2796 30.7026 30.2289 30.7434 30.1782 30.7843C30.1465 30.8098 30.1148 30.8353 30.084 30.8617C29.8428 31.0692 29.5965 31.268 29.3253 31.438C29.2661 31.4752 29.2032 31.5064 29.1405 31.5375C29.1 31.5576 29.0596 31.5776 29.0203 31.5992C28.744 31.7517 28.4653 31.9005 28.1615 32.0155C28.0884 32.0433 28.0107 32.0633 27.9327 32.0835C27.8773 32.0978 27.8218 32.1121 27.7678 32.1292C27.7407 32.1376 27.7137 32.146 27.6867 32.1544C27.4154 32.2388 27.1449 32.323 26.8528 32.373C26.6835 32.4027 26.5039 32.414 26.3241 32.4254C26.2463 32.4304 26.1685 32.4353 26.0915 32.4417C26.0087 32.4479 25.9276 32.4579 25.8463 32.4679C25.7141 32.4842 25.5816 32.5005 25.4415 32.5005H14.5465C14.0765 32.5005 13.6278 32.453 13.194 32.3817C13.1856 32.3804 13.1775 32.3791 13.1695 32.3778C13.1622 32.3766 13.155 32.3754 13.1478 32.3742C11.4565 32.083 10.0528 31.2667 9.06902 30.0355C9.06219 30.0355 9.05951 30.0309 9.05593 30.0247C9.05362 30.0208 9.05094 30.0162 9.04652 30.0117C8.05777 28.7667 7.49902 27.093 7.49902 25.128V14.8605C7.49902 10.453 10.3378 7.50049 14.5465 7.50049H25.4415ZM18.7499 15.6437C18.7499 17.3374 17.3327 18.75 15.6309 18.75C14.135 18.75 12.8596 17.657 12.5738 16.242C12.5265 16.0297 12.4999 15.8113 12.4999 15.5858C12.4999 13.88 13.8855 12.5 15.5982 12.5C16.4703 12.5 17.26 12.8667 17.8257 13.4518C18.3938 14.0163 18.7499 14.7944 18.7499 15.6437Z"
	      fill="#BEC5CF"/>
</svg>
