<svg width="14" height="14" viewBox="0 0 14 14" fill="none" xmlns="http://www.w3.org/2000/svg">
<path d="M7.77344 7.00075L13.8398 0.934335C14.0534 0.720753 14.0534 0.374473 13.8398 0.160919C13.6262 -0.0526356 13.28 -0.052663 13.0664 0.160919L6.99999 6.22734L0.933603 0.160919C0.720021 -0.052663 0.373741 -0.052663 0.160186 0.160919C-0.0533681 0.3745 -0.0533954 0.720781 0.160186 0.934335L6.22658 7.00073L0.160186 13.0671C-0.0533954 13.2807 -0.0533954 13.627 0.160186 13.8406C0.266963 13.9473 0.406936 14.0007 0.546908 14.0007C0.686881 14.0007 0.826826 13.9473 0.93363 13.8406L6.99999 7.77417L13.0664 13.8406C13.1732 13.9473 13.3131 14.0007 13.4531 14.0007C13.5931 14.0007 13.733 13.9473 13.8398 13.8406C14.0534 13.627 14.0534 13.2807 13.8398 13.0671L7.77344 7.00075Z" fill="#BEC5CF"/>
</svg>
