<svg xmlns="http://www.w3.org/2000/svg" width="14" height="14">
	<defs/>
	<g fill="currentColor" clip-path="url(#clip0)">
		<path d="M6.165 0A6.172 6.172 0 000 6.165c0 3.4 2.766 6.166 6.165 6.166 3.4 0 6.166-2.766 6.166-6.166C12.33 2.765 9.565 0 6.165 0zm0 11.192a5.033 5.033 0 01-5.027-5.027 5.033 5.033 0 015.027-5.027 5.033 5.033 0 015.027 5.027 5.033 5.033 0 01-5.027 5.027z"/>
		<path d="M13.833 13.028L10.57 9.766a.569.569 0 10-.804.804l3.262 3.263a.567.567 0 00.805 0 .569.569 0 000-.805z"/>
	</g>
	<defs>
		<clipPath id="clip0">
			<path fill="#fff" d="M0 0h14v14H0z"/>
		</clipPath>
	</defs>
</svg>
