<svg width="12" height="6" viewBox="0 0 12 6" fill="none" xmlns="http://www.w3.org/2000/svg">
	<path d="M11.8625 2.66825C11.8624 2.66811 11.8623 2.66794 11.8621 2.6678L9.41278 0.230309C9.22929 0.0477081 8.9325 0.0483876 8.74985 0.231903C8.56723 0.415394 8.56793 0.712183 8.75142 0.894807L10.3959 2.5313H0.46875C0.209859 2.5313 0 2.74116 0 3.00005C0 3.25894 0.209859 3.4688 0.46875 3.4688H10.3959L8.75144 5.1053C8.56795 5.28792 8.56725 5.58471 8.74988 5.7682C8.93252 5.95174 9.22934 5.95237 9.4128 5.76979L11.8621 3.3323C11.8623 3.33216 11.8624 3.332 11.8625 3.33186C12.0461 3.14862 12.0455 2.85087 11.8625 2.66825Z"
	      fill="currentColor"/>
</svg>
