<svg width="12" height="10" viewBox="0 0 12 10" xmlns="http://www.w3.org/2000/svg">
<path
		d="M6.00361 8.74066C6.00361 8.95206 5.88147 9.14411 5.69032 9.23375C5.61641 9.2687 5.53722 9.2856 5.45854 9.2856C5.33395 9.2856 5.21052 9.24278 5.11081 9.1601L2.13164 6.69143H0.544939C0.244029 6.69169 0 6.44753 0 6.14662V3.97551C0 3.67447 0.244029 3.43044 0.544939 3.43044H2.13177L5.11094 0.961773C5.27372 0.82686 5.49943 0.798098 5.69045 0.888384C5.88147 0.978024 6.00374 1.1702 6.00374 1.38147L6.00361 8.74066ZM8.09785 7.88914C8.08457 7.89004 8.0718 7.89056 8.05864 7.89056C7.9147 7.89056 7.77592 7.83368 7.67338 7.73101L7.60051 7.65788C7.40936 7.46712 7.38692 7.16492 7.54788 6.94797C7.95597 6.39775 8.17137 5.7455 8.17137 5.06126C8.17137 4.3253 7.92683 3.635 7.46405 3.06491C7.28786 2.84823 7.30411 2.53352 7.50158 2.33618L7.57432 2.26331C7.68318 2.15445 7.82906 2.09512 7.98693 2.10453C8.14067 2.11227 8.28423 2.18463 8.38174 2.30381C9.02367 3.08929 9.36275 4.04297 9.36275 5.06139C9.36275 6.0099 9.06288 6.91276 8.49537 7.67194C8.40057 7.79846 8.25559 7.87792 8.09785 7.88914ZM10.3509 9.57322C10.2523 9.68969 10.1098 9.7596 9.95722 9.76605C9.94974 9.7663 9.94213 9.76656 9.93439 9.76656C9.79006 9.76656 9.65154 9.70955 9.549 9.60702L9.47742 9.53543C9.27737 9.33551 9.26383 9.01577 9.44569 8.79935C10.3246 7.75409 10.8087 6.42664 10.8087 5.06126C10.8087 3.64107 10.2904 2.27388 9.34947 1.21161C9.15871 0.995953 9.16838 0.669505 9.3714 0.465718L9.44285 0.394134C9.54887 0.287597 9.68662 0.228911 9.84462 0.233941C9.99463 0.238198 10.1365 0.304493 10.2362 0.416705C11.3735 1.69721 12 3.34686 12 5.06126C12.0003 6.71078 11.4146 8.31322 10.3509 9.57322Z" fill="currentColor"/>
</svg>
